<?xml version="1.0" encoding="UTF-8"?>
<svg version="1.1" xmlns="http://www.w3.org/2000/svg" width="512" height="512">
<path d="M0 0 C0.80301544 -0.00067474 1.60603088 -0.00134949 2.43338013 -0.00204468 C15.10249299 0.01484305 27.31578833 0.648435 39.75 3.25 C41.03269775 3.50740967 41.03269775 3.50740967 42.34130859 3.77001953 C53.16350533 5.98432528 63.47337258 8.93063137 73.71142578 13.10253906 C74.81526611 13.54291504 74.81526611 13.54291504 75.94140625 13.9921875 C76.58279541 14.2588623 77.22418457 14.52553711 77.88500977 14.80029297 C80.18600403 15.35513411 81.53397662 15.02722319 83.75 14.25 C85.61987023 12.9864033 85.61987023 12.9864033 87.4375 11.4375 C96.66066139 4.32833493 108.12810675 1.07865958 119.75 2.25 C133.79397742 4.48864148 144.72002964 10.2028647 153.57421875 21.59765625 C159.55531288 30.86307915 162.64532492 41.23252942 161.75 52.25 C164.06 52.25 166.37 52.25 168.75 52.25 C168.7190625 51.0434375 168.7190625 51.0434375 168.6875 49.8125 C168.75 47.25 168.75 47.25 169.75 46.25 C171.41617115 46.20936168 173.08388095 46.207279 174.75 46.25 C174.74476318 46.85784332 174.73952637 47.46568665 174.73413086 48.09194946 C174.68702107 54.48538856 174.69675323 60.87704061 174.73779297 67.27050781 C174.74584608 69.64843191 174.73996385 72.02644947 174.71923828 74.40429688 C174.60292391 88.97420234 174.88619595 99.36148786 183.75 111.25 C184.53777895 112.64336897 185.29508861 114.05511663 186 115.4921875 C186.29422852 116.09015137 186.58845703 116.68811523 186.89160156 117.30419922 C199.94065489 144.98333451 206.21059135 174.42297291 206.0625 204.9375 C206.05976578 206.1157988 206.05976578 206.1157988 206.05697632 207.31790161 C206.0082174 219.84449735 205.32187115 231.95771046 202.75 244.25 C202.57839355 245.10513184 202.40678711 245.96026367 202.22998047 246.84130859 C199.48827712 260.24110807 195.89608778 273.95782444 189.75 286.25 C190.50925781 286.22679687 191.26851563 286.20359375 192.05078125 286.1796875 C193.04464844 286.16164063 194.03851563 286.14359375 195.0625 286.125 C196.04863281 286.10179687 197.03476562 286.07859375 198.05078125 286.0546875 C200.75 286.25 200.75 286.25 203.75 288.25 C203.375 290.1875 203.375 290.1875 202.75 292.25 C199.68466836 293.78266582 196.48245728 293.35276471 193.125 293.3125 C192.41859375 293.30798828 191.7121875 293.30347656 190.984375 293.29882812 C189.23954725 293.28703875 187.494763 293.26910324 185.75 293.25 C185.49992187 294.08917969 185.24984375 294.92835938 184.9921875 295.79296875 C169.44683844 339.05596848 126.31868235 373.5263463 86.14672852 392.57666016 C59.18515498 404.90319149 30.61444178 410.70591979 1.0625 410.5625 C0.27696747 410.56067719 -0.50856506 410.55885437 -1.31790161 410.55697632 C-13.84449735 410.5082174 -25.95771046 409.82187115 -38.25 407.25 C-39.10513184 407.07839355 -39.96026367 406.90678711 -40.84130859 406.72998047 C-67.24448869 401.32768416 -93.22012731 390.90503117 -115.25 375.25 C-116.24644531 374.54488281 -117.24289063 373.83976562 -118.26953125 373.11328125 C-142.42685499 355.47811831 -162.16572011 334.10876553 -177.25 308.25 C-177.71905762 307.44884766 -178.18811523 306.64769531 -178.67138672 305.82226562 C-181.02034314 301.71655569 -182.95707296 297.83401405 -184.25 293.25 C-185.29800781 293.27320313 -186.34601563 293.29640625 -187.42578125 293.3203125 C-188.80468037 293.33907303 -190.1835872 293.35727293 -191.5625 293.375 C-192.25279297 293.39175781 -192.94308594 293.40851563 -193.65429688 293.42578125 C-197.42135396 293.46217794 -199.03431704 293.39378864 -202.25 291.25 C-201.875 289.3125 -201.875 289.3125 -201.25 287.25 C-198.60541621 285.92770811 -196.57238699 286.15322806 -193.625 286.1875 C-192.12066406 286.20103516 -192.12066406 286.20103516 -190.5859375 286.21484375 C-189.42964844 286.23224609 -189.42964844 286.23224609 -188.25 286.25 C-188.62511719 285.36441406 -189.00023437 284.47882813 -189.38671875 283.56640625 C-196.33233653 266.88733398 -200.5250169 250.10925611 -203.25 232.25 C-203.40903809 231.23425903 -203.40903809 231.23425903 -203.57128906 230.19799805 C-210.59737975 177.8485858 -195.20796518 122.83719464 -163.33764648 81.05761719 C-157.68614903 73.76142065 -151.61342863 66.92826093 -145.25 60.25 C-144.52425781 59.47140625 -143.79851562 58.6928125 -143.05078125 57.890625 C-128.92772428 43.16714232 -111.22262517 31.68775767 -93.25 22.25 C-92.59580078 21.90582031 -91.94160156 21.56164062 -91.26757812 21.20703125 C-70.80368524 10.62016099 -48.94094962 4.75748514 -26.25 1.25 C-25.54246582 1.1380127 -24.83493164 1.02602539 -24.10595703 0.91064453 C-16.13456443 -0.1640854 -8.0292809 0.00605968 0 0 Z M161.75 58.25 C161.57361162 61.41594536 161.46847924 64.58060873 161.375 67.75 C161.32472656 68.636875 161.27445312 69.52375 161.22265625 70.4375 C161.0846833 76.69227377 162.33217892 80.06277409 166.35302734 84.86914062 C167.5411566 86.36716554 167.5411566 86.36716554 168.75 86.25 C168.75 77.01 168.75 67.77 168.75 58.25 C166.44 58.25 164.13 58.25 161.75 58.25 Z " fill="#4B4640" transform="translate(255.25,50.75)"/>
<path d="M0 0 C0.80301544 -0.00067474 1.60603088 -0.00134949 2.43338013 -0.00204468 C15.10249299 0.01484305 27.31578833 0.648435 39.75 3.25 C41.03269775 3.50740967 41.03269775 3.50740967 42.34130859 3.77001953 C55.74110807 6.51172288 69.45782444 10.10391222 81.75 16.25 C80.55940429 18.95589934 79.20688947 20.95032674 77.375 23.3125 C72.60062074 29.83842668 69.65891276 38.66109064 69.59178162 46.75518799 C69.5819928 47.65258698 69.57220398 48.54998596 69.56211853 49.47457886 C69.55636307 50.45137604 69.5506076 51.42817322 69.54467773 52.43457031 C69.53477814 53.4690329 69.52487854 54.50349548 69.51467896 55.56930542 C69.48308916 58.98888866 69.45831637 62.40848579 69.43359375 65.828125 C69.41302206 68.19895794 69.39202553 70.56978723 69.37062073 72.94061279 C69.31542235 79.18112227 69.26600316 85.42166473 69.21777344 91.66223145 C69.16754216 98.03005916 69.11186457 104.39783897 69.05664062 110.765625 C68.94908635 123.26037575 68.84763525 135.75516808 68.75 148.25 C64.87849364 144.49496375 62.36861523 140.53387909 59.62890625 135.90625 C56.221103 131.08856557 51.5948075 128.46173303 46.48046875 125.67578125 C45.88633682 125.35113892 45.2922049 125.02649658 44.68006897 124.6920166 C43.41732664 124.00224336 42.15362629 123.3142214 40.88903809 122.62783813 C38.91910697 121.55245931 36.95919341 120.46056053 35.00097656 119.36401367 C26.83024461 114.80709151 26.83024461 114.80709151 18.31640625 110.9375 C14.01796538 109.12325003 10.95367222 107.7326707 7.75 104.25 C5.94213915 98.05813998 6.26304149 91.62649298 6.81494141 85.26196289 C6.97202768 83.01607644 6.97202768 83.01607644 4.75 81.25 C3.43 80.92 2.11 80.59 0.75 80.25 C0.75 75.3 0.75 70.35 0.75 65.25 C2.73 64.59 4.71 63.93 6.75 63.25 C4.35127206 57.92629257 0.42258527 53.73261343 -3.25 49.25 C-3.80558594 48.52167969 -4.36117187 47.79335937 -4.93359375 47.04296875 C-5.42988281 46.41003906 -5.92617187 45.77710938 -6.4375 45.125 C-6.86417969 44.56554687 -7.29085937 44.00609375 -7.73046875 43.4296875 C-9.25974668 42.05184697 -9.25974668 42.05184697 -11.6875 41.828125 C-15.05241947 42.38210564 -15.9157942 43.512798 -18.0625 46.125 C-18.73925781 46.9396875 -19.41601562 47.754375 -20.11328125 48.59375 C-20.81839844 49.4703125 -21.52351562 50.346875 -22.25 51.25 C-23.00667969 52.1471875 -23.76335937 53.044375 -24.54296875 53.96875 C-28.82753414 58.5302792 -28.82753414 58.5302792 -30.25 64.25 C-27.28 64.745 -27.28 64.745 -24.25 65.25 C-24.25 70.2 -24.25 75.15 -24.25 80.25 C-27.22 80.745 -27.22 80.745 -30.25 81.25 C-30.10691406 82.1929895 -30.10691406 82.1929895 -29.9609375 83.1550293 C-29.06535644 90.27086338 -28.48890783 97.49133164 -31.25 104.25 C-36.81891988 110.05959194 -44.7844971 112.8689138 -52.09326172 115.89746094 C-56.66015923 117.85419816 -60.93649054 120.23278938 -65.25 122.6875 C-66.29595337 123.25368042 -66.29595337 123.25368042 -67.36303711 123.83129883 C-75.00135352 128.01610632 -81.34520078 132.36920716 -85.9375 139.875 C-86.34701904 140.51542236 -86.75653809 141.15584473 -87.1784668 141.81567383 C-88.07087918 143.21192357 -88.95748779 144.61189634 -89.83886719 146.01513672 C-91.83429713 149.17537299 -93.88153398 152.30097476 -95.92553711 155.42993164 C-97.58429599 157.970888 -99.23644511 160.5160257 -100.88671875 163.0625 C-103.66559329 167.34986032 -106.44951223 171.63391088 -109.23535156 175.91674805 C-114.38586924 183.83501711 -119.52727028 191.75906947 -124.64892578 199.69604492 C-125.06513184 200.34033447 -125.48133789 200.98462402 -125.91015625 201.6484375 C-126.30219238 202.2578418 -126.69422852 202.86724609 -127.09814453 203.49511719 C-127.86209363 204.6590142 -128.64433256 205.81112218 -129.44482422 206.95019531 C-131.79207709 210.25879437 -131.79207709 210.25879437 -132.25 214.25 C-128.58173789 213.65174059 -128.32112349 213.34670403 -125.92578125 210.08984375 C-125.12588978 208.79648689 -124.33850399 207.49532879 -123.5625 206.1875 C-122.14777368 203.85829459 -120.71294578 201.54976263 -119.25 199.25 C-118.92 199.25 -118.59 199.25 -118.25 199.25 C-118.25 228.29 -118.25 257.33 -118.25 287.25 C-131.78 287.25 -145.31 287.25 -159.25 287.25 C-159.394375 283.125 -159.53875 279 -159.6875 274.75 C-159.78309204 272.82317383 -159.78309204 272.82317383 -159.88061523 270.85742188 C-159.97906283 265.02496906 -159.91824163 261.21286101 -155.87109375 256.7890625 C-155.23534424 256.17901367 -154.59959473 255.56896484 -153.94458008 254.94042969 C-151.60911158 252.61068126 -150.78647598 250.26081187 -149.875 247.125 C-149.57851562 246.15304687 -149.28203125 245.18109375 -148.9765625 244.1796875 C-144.66011602 226.77466136 -148.20461512 210.32100554 -152.25 193.25 C-152.77155752 190.98063507 -153.29238173 188.71110148 -153.8125 186.44140625 C-154.33139352 184.21048543 -154.85217557 181.98000287 -155.375 179.75 C-155.73682373 178.20203735 -155.73682373 178.20203735 -156.10595703 176.62280273 C-157.46537534 170.97745351 -159.08188362 165.63821821 -161.25 160.25 C-162.24 160.58 -163.23 160.91 -164.25 161.25 C-165.14701822 163.08695921 -165.14701822 163.08695921 -165.6796875 165.38671875 C-165.91526367 166.26344238 -166.15083984 167.14016602 -166.39355469 168.04345703 C-166.63493164 168.99849121 -166.87630859 169.95352539 -167.125 170.9375 C-167.3818457 171.91831543 -167.63869141 172.89913086 -167.90332031 173.90966797 C-170.59053903 184.30234553 -173.01317803 194.75190849 -175.25 205.25 C-175.49878906 206.37664062 -175.74757813 207.50328125 -176.00390625 208.6640625 C-179.05297286 224.14393911 -178.76950269 242.46533881 -170.25 256.25 C-168.95642578 257.20132813 -168.95642578 257.20132813 -167.63671875 258.171875 C-163.77753821 263.14901782 -164.72430646 268.4651648 -164.9375 274.5625 C-164.96005859 275.78001953 -164.98261719 276.99753906 -165.00585938 278.25195312 C-165.06468048 281.25182929 -165.15435736 284.25107196 -165.25 287.25 C-172.51 287.25 -179.77 287.25 -187.25 287.25 C-190.82663421 280.45255453 -193.62233472 273.85552881 -195.8125 266.5 C-196.10914551 265.51499512 -196.40579102 264.52999023 -196.71142578 263.51513672 C-199.70208207 253.24629123 -201.71407113 242.82805558 -203.25 232.25 C-203.353125 231.58154053 -203.45625 230.91308105 -203.5625 230.22436523 C-210.60461246 177.86751663 -195.21347971 122.84442377 -163.33764648 81.05761719 C-157.68614903 73.76142065 -151.61342863 66.92826093 -145.25 60.25 C-144.52425781 59.47140625 -143.79851562 58.6928125 -143.05078125 57.890625 C-128.92772428 43.16714232 -111.22262517 31.68775767 -93.25 22.25 C-92.59580078 21.90582031 -91.94160156 21.56164062 -91.26757812 21.20703125 C-70.80368524 10.62016099 -48.94094962 4.75748514 -26.25 1.25 C-25.54246582 1.1380127 -24.83493164 1.02602539 -24.10595703 0.91064453 C-16.13456443 -0.1640854 -8.0292809 0.00605968 0 0 Z " fill="#E7F3F9" transform="translate(255.25,50.75)"/>
<path d="M0 0 C122.76 0 245.52 0 372 0 C362.62446635 18.7510673 362.62446635 18.7510673 359.1875 24.125 C358.56657471 25.10400269 358.56657471 25.10400269 357.93310547 26.1027832 C350.17684421 38.10596774 340.85270186 48.69233932 331 59 C330.04673828 60.01513672 330.04673828 60.01513672 329.07421875 61.05078125 C296.00030003 95.38766584 244.860604 117.0050208 197.4969635 118.26506042 C193.7683507 118.32570618 190.04149002 118.33059732 186.3125 118.3125 C185.52696747 118.31067719 184.74143494 118.30885437 183.93209839 118.30697632 C171.40550265 118.2582174 159.29228954 117.57187115 147 115 C146.14486816 114.82839355 145.28973633 114.65678711 144.40869141 114.47998047 C118.00551131 109.07768416 92.02987269 98.65503117 70 83 C69.00355469 82.29488281 68.00710937 81.58976562 66.98046875 80.86328125 C42.85718655 63.25296908 23.08498538 41.91538193 8.0625 16.0625 C7.60182129 15.26972656 7.14114258 14.47695313 6.66650391 13.66015625 C4.09242011 9.14669426 2.07310987 4.83725636 0 0 Z " fill="#FEFEFE" transform="translate(70,343)"/>
<path d="M0 0 C3.96 0 7.92 0 12 0 C12.33 30.36 12.66 60.72 13 92 C13.99 92.33 14.98 92.66 16 93 C16.33 62.31 16.66 31.62 17 0 C20.96 0 24.92 0 29 0 C29.33 35.97 29.66 71.94 30 109 C30.99 109 31.98 109 33 109 C33.33 73.03 33.66 37.06 34 0 C38.95 0 43.9 0 49 0 C49.33 66.99 49.66 133.98 50 203 C50.99 203 51.98 203 53 203 C53.33 136.01 53.66 69.02 54 0 C57.96 0 61.92 0 66 0 C66.33 66.99 66.66 133.98 67 203 C67.99 203 68.98 203 70 203 C70.33 136.01 70.66 69.02 71 0 C74.63 0 78.26 0 82 0 C82 75.57 82 151.14 82 229 C61.87 229 41.74 229 21 229 C21 200.29 21 171.58 21 142 C25.10878955 146.10878955 27.65594373 149.37863111 30.5703125 154.20703125 C31.04210937 154.79871094 31.51390625 155.39039063 32 156 C32.99 156 33.98 156 35 156 C34.35102447 152.48843395 32.93118805 150.04031763 31 147.0546875 C30.36779541 146.07185791 29.73559082 145.08902832 29.08422852 144.07641602 C28.39643311 143.01994873 27.7086377 141.96348145 27 140.875 C26.29609131 139.78437256 25.59218262 138.69374512 24.86694336 137.57006836 C18.73045982 128.06895333 12.53580608 118.60468176 6.32226562 109.15380859 C5.63970703 108.11434082 4.95714844 107.07487305 4.25390625 106.00390625 C3.34620483 104.62440796 3.34620483 104.62440796 2.42016602 103.21704102 C0.47976004 100.18784613 -0.12475754 98.55845826 -0.12025452 95.00106812 C-0.12162918 94.16531754 -0.12300385 93.32956696 -0.12442017 92.4684906 C-0.12082489 91.54995804 -0.11722961 90.63142548 -0.11352539 89.68505859 C-0.11367142 88.71916306 -0.11381744 87.75326752 -0.1139679 86.75810242 C-0.11326937 83.55485819 -0.10547978 80.35167161 -0.09765625 77.1484375 C-0.09579186 74.93169181 -0.09436805 72.71494571 -0.09336853 70.49819946 C-0.08954504 64.65546537 -0.07971617 58.81275603 -0.06866455 52.97003174 C-0.05844682 47.01127456 -0.05387013 41.0525134 -0.04882812 35.09375 C-0.03809377 23.39582244 -0.02101935 11.69791328 0 0 Z " fill="#DAB87D" transform="translate(329,109)"/>
<path d="M0 0 C1.31887864 0.67432872 2.62886502 1.36625952 3.93066406 2.07299805 C4.64256393 2.44245041 5.35446381 2.81190277 6.0879364 3.19255066 C8.38351441 4.38954211 10.66534378 5.61009954 12.94628906 6.8347168 C14.52673068 7.67395359 16.10754329 8.51249212 17.6887207 9.3503418 C20.03861 10.59689532 22.38718287 11.84559664 24.73158264 13.10244751 C28.9480928 15.35831952 33.18632246 17.50939101 37.52050781 19.53393555 C49.32370419 25.16624696 55.29872244 31.57665068 61.67773438 42.92163086 C63.3590251 45.8009088 65.17500911 48.55801184 67.03222656 51.3269043 C67.68271973 52.3048999 68.33321289 53.28289551 69.00341797 54.29052734 C70.27255801 56.19742699 71.54801418 58.10014211 72.83056641 59.99804688 C76.1253145 65.0800536 78.15674741 68.4181468 77.19628906 74.5222168 C75.43613776 77.70725249 74.6973799 78.35518652 71.19628906 79.5222168 C69.08967568 79.62447143 66.97994925 79.66594954 64.87088013 79.67611694 C63.90452505 79.68269032 63.90452505 79.68269032 62.91864765 79.6893965 C60.75614624 79.70276978 58.59368556 79.70895996 56.43115234 79.71508789 C54.88219011 79.72298985 53.33322971 79.73125886 51.78427124 79.73986816 C46.69506586 79.76607155 41.60585231 79.78139145 36.51660156 79.7956543 C34.76493194 79.80101416 33.01326238 79.80639167 31.26159286 79.81178665 C23.97674586 79.83341052 16.69190107 79.85214847 9.40703011 79.86340904 C-1.03627085 79.87965794 -11.47920034 79.91286396 -21.92236125 79.96980989 C-29.26426512 80.00848211 -36.6060695 80.02803834 -43.94807255 80.03332961 C-48.33415074 80.03698605 -52.71983258 80.04903851 -57.10580063 80.08143234 C-61.23125902 80.1114664 -65.35608026 80.11784182 -69.4816246 80.10604858 C-70.99535495 80.10582747 -72.50911447 80.11416375 -74.02274323 80.13170242 C-76.09070905 80.15435954 -78.15635732 80.14611971 -80.22433472 80.13021851 C-81.95929608 80.13518373 -81.95929608 80.13518373 -83.72930717 80.14024925 C-87.76514716 79.32894394 -89.25801497 77.6881096 -91.80371094 74.5222168 C-93.01865512 69.45781789 -91.39440789 66.41466356 -88.87402344 62.1159668 C-87.57592564 60.07380676 -86.25986906 58.04298239 -84.92871094 56.0222168 C-84.24413818 54.96156006 -83.55956543 53.90090332 -82.85424805 52.80810547 C-81.48097757 50.68551433 -80.10111704 48.56717076 -78.71435547 46.45336914 C-77.06222586 43.91880895 -75.45144691 41.36601208 -73.86230469 38.79174805 C-73.03105516 37.47224485 -72.19909222 36.15319063 -71.36621094 34.8347168 C-70.66625 33.71709961 -69.96628906 32.59948242 -69.24511719 31.44799805 C-63.38828515 24.42917053 -54.05306785 20.97563019 -46.05371094 16.8972168 C-39.26300141 13.42816468 -32.48619431 9.95897017 -25.87011719 6.1628418 C-24.97583008 5.65188965 -24.08154297 5.1409375 -23.16015625 4.61450195 C-21.51429395 3.66520901 -19.87625023 2.70217239 -18.24804688 1.72290039 C-17.50973633 1.29831543 -16.77142578 0.87373047 -16.01074219 0.4362793 C-15.07452026 -0.1213208 -15.07452026 -0.1213208 -14.11938477 -0.69018555 C-9.19947718 -2.3635247 -4.6722303 -2.10107116 0 0 Z " fill="#FE6141" transform="translate(250.8037109375,163.477783203125)"/>
<path d="M0 0 C0.99370605 0.56847656 1.98741211 1.13695312 3.01123047 1.72265625 C4.71859375 2.68316895 4.71859375 2.68316895 6.46044922 3.66308594 C7.68325672 4.37018121 8.90590925 5.07754454 10.12841797 5.78515625 C11.39969824 6.5070419 12.67184946 7.2273957 13.94482422 7.94628906 C15.9294143 9.06790088 17.91301692 10.19105324 19.89337158 11.32012939 C24.629779 14.0203056 29.39552227 16.66128043 34.18310547 19.26953125 C35.17312057 19.80991028 35.17312057 19.80991028 36.18313599 20.36120605 C38.74985635 21.7619936 41.3166964 23.16251905 43.88677979 24.55712891 C45.65732049 25.51918607 47.42419434 26.48798222 49.19091797 27.45703125 C50.19509766 28.00456055 51.19927734 28.55208984 52.23388672 29.11621094 C56.33467903 31.58738656 59.88334057 34.09272453 62.44091797 38.19140625 C62.85414307 38.84254395 63.26736816 39.49368164 63.69311523 40.16455078 C64.34171509 41.21425049 64.34171509 41.21425049 65.00341797 42.28515625 C65.97037891 43.81411017 66.93784841 45.34274255 67.90576172 46.87109375 C68.40962402 47.67256836 68.91348633 48.47404297 69.43261719 49.29980469 C72.10511947 53.52828981 74.83717124 57.71783857 77.56591797 61.91015625 C78.30551758 63.05194336 78.30551758 63.05194336 79.06005859 64.21679688 C79.80739258 65.36825195 79.80739258 65.36825195 80.56982422 66.54296875 C81.06121384 67.32426651 81.55260345 68.10556427 82.05888367 68.91053772 C83.99526473 71.8771494 83.99526473 71.8771494 86.49189758 74.76548767 C95.45289223 85.85926103 95.32817737 96.10247608 94.97998047 109.90625 C94.9612887 112.10438289 94.94707328 114.30255793 94.93710327 116.50074768 C94.89923898 122.23762599 94.80129351 127.97190153 94.69006348 133.70776367 C94.58707033 139.58020837 94.5419471 145.45308096 94.49169922 151.32617188 C94.38501435 162.81363268 94.21473964 174.29917659 94.00341797 185.78515625 C91.36341797 185.78515625 88.72341797 185.78515625 86.00341797 185.78515625 C85.99794952 184.23540352 85.99794952 184.23540352 85.99237061 182.65434265 C85.95546317 172.92771659 85.89773743 163.20140838 85.81951523 153.47502422 C85.77997026 148.47430273 85.74781635 143.47375918 85.73242188 138.47290039 C85.71730136 133.64866304 85.68293837 128.82491465 85.63510895 124.00089455 C85.62024744 122.15850888 85.61237423 120.31605343 85.61153412 118.47360802 C85.60917696 115.89682985 85.58220034 113.32141688 85.54931641 110.74487305 C85.55434677 109.97954758 85.55937714 109.21422211 85.56455994 108.42570496 C85.52755694 104.37910283 85.52755694 104.37910283 83.41738605 101.0894804 C80.11738718 99.30641282 77.60760245 99.40748964 73.86094666 99.40420532 C72.78093733 99.39718536 72.78093733 99.39718536 71.67910963 99.39002359 C69.26611042 99.37805593 66.85367728 99.3875374 64.44067383 99.39697266 C62.7109799 99.39290777 60.98128857 99.38756635 59.25160217 99.38104248 C54.5533757 99.36735423 49.85534663 99.37267348 45.15711665 99.38217974 C40.24443318 99.3897673 35.33176677 99.38273335 30.41908264 99.37802124 C22.16973836 99.37256157 13.92047463 99.3797614 5.67114258 99.39404297 C-3.87310838 99.41037529 -13.41716714 99.4050776 -22.96141344 99.38856375 C-31.15002499 99.37496136 -39.33857859 99.37302295 -47.52719778 99.38087976 C-52.42055408 99.38556245 -57.31381996 99.38616468 -62.20717049 99.37627029 C-66.80613162 99.36762084 -71.40484425 99.37358539 -76.00377846 99.39095306 C-77.69409014 99.39492852 -79.38442264 99.39376584 -81.0747261 99.38716507 C-83.37713366 99.37900113 -85.67873836 99.38920773 -87.98109436 99.40420532 C-89.91598016 99.40590194 -89.91598016 99.40590194 -91.88995457 99.40763283 C-94.94874739 99.53794818 -94.94874739 99.53794818 -96.91012955 101.0894804 C-98.79159444 104.0259683 -98.43529197 107.36544077 -98.42895508 110.74487305 C-98.43914673 111.55485748 -98.44933838 112.36484192 -98.45983887 113.19937134 C-98.49004328 115.87777557 -98.49924605 118.55582262 -98.50830078 121.234375 C-98.52514197 123.09097998 -98.54329145 124.94757351 -98.56269836 126.80415344 C-98.6102654 131.69166489 -98.64003134 136.57912996 -98.6661377 141.46679688 C-98.69590945 146.45386924 -98.74245136 151.44078168 -98.78759766 156.42773438 C-98.873707 166.21345813 -98.9410183 175.99921473 -98.99658203 185.78515625 C-101.96658203 185.78515625 -104.93658203 185.78515625 -107.99658203 185.78515625 C-108.22943956 173.41466622 -108.40654606 161.04470699 -108.51470375 148.67246246 C-108.56664497 142.92586741 -108.63696389 137.1807839 -108.75097656 131.43505859 C-108.86053779 125.87817285 -108.9196111 120.32273018 -108.94535446 114.7648468 C-108.96367212 112.65661428 -108.99943986 110.54845072 -109.0538826 108.44084167 C-109.39550139 94.65339336 -107.86120753 85.51074659 -99.29468727 74.48925972 C-97.1437539 71.66559573 -95.25934819 68.68072864 -93.32861328 65.703125 C-92.57482319 64.57348625 -91.81922189 63.44505192 -91.06103516 62.31835938 C-90.68986572 61.76672119 -90.31869629 61.21508301 -89.9362793 60.64672852 C-89.37831665 59.81806274 -89.37831665 59.81806274 -88.80908203 58.97265625 C-87.29308054 56.71726817 -85.77925885 54.46042973 -84.26611328 52.203125 C-83.54504395 51.12981934 -82.82397461 50.05651367 -82.08105469 48.95068359 C-79.52316603 45.066216 -77.09512808 41.108809 -74.70629883 37.1184082 C-71.62075256 32.90756061 -67.62412093 30.42043584 -63.06689453 28.0078125 C-61.64316528 27.24706421 -61.64316528 27.24706421 -60.19067383 26.47094727 C-59.17787354 25.93526123 -58.16507324 25.3995752 -57.12158203 24.84765625 C-47.64910352 19.78141975 -38.25840927 14.59319625 -28.92480469 9.27563477 C-27.1679998 8.27562964 -25.4086103 7.28014952 -23.64648438 6.28955078 C-21.79597067 5.23898274 -19.95860714 4.16506046 -18.13183594 3.07373047 C-17.18614746 2.52346191 -16.24045898 1.97319336 -15.26611328 1.40625 C-14.42282471 0.90407959 -13.57953613 0.40190918 -12.71069336 -0.11547852 C-8.16973474 -1.95481797 -4.52347816 -1.83386242 0 0 Z M-20.55908203 14.78515625 C-27.31457472 18.65884037 -34.0983642 22.3859804 -41.08251953 25.828125 C-42.4790022 26.52262627 -43.87540514 27.21728788 -45.27172852 27.91210938 C-47.33386509 28.93729255 -49.39802094 29.95535737 -51.47439575 30.95141602 C-59.8257539 34.96498416 -66.02600074 38.68556896 -70.99658203 46.78515625 C-71.60590576 47.72012939 -72.21522949 48.65510254 -72.84301758 49.6184082 C-74.81027898 52.67103816 -76.72173528 55.75268233 -78.62158203 58.84765625 C-79.26353516 59.88470703 -79.90548828 60.92175781 -80.56689453 61.99023438 C-81.81245312 64.00278139 -83.0546283 66.01742739 -84.29296875 68.03442383 C-85.36193059 69.76041882 -86.44487455 71.47791423 -87.54785156 73.18237305 C-88.00015137 73.88144775 -88.45245117 74.58052246 -88.91845703 75.30078125 C-89.3087207 75.8927832 -89.69898438 76.48478516 -90.10107422 77.09472656 C-91.72496476 80.16010773 -91.62640192 82.44711083 -90.99658203 85.78515625 C-88.46200479 88.96209855 -86.96152774 90.58906814 -82.92776489 91.40877533 C-81.77372162 91.40806282 -80.61967834 91.40735031 -79.43066406 91.40661621 C-78.78471849 91.41300503 -78.13877293 91.41939385 -77.47325325 91.42597628 C-75.31632985 91.44119476 -73.16125291 91.42078967 -71.00439453 91.40039062 C-69.45513298 91.40389283 -67.90587502 91.40955253 -66.35662842 91.41720581 C-62.15400439 91.43144948 -57.952035 91.41439677 -53.74947357 91.39092064 C-49.35023752 91.37080789 -44.95102854 91.37669142 -40.55175781 91.37902832 C-33.16411549 91.37897475 -25.77672896 91.35922063 -18.38916016 91.32714844 C-9.84976301 91.29025579 -1.31070095 91.28147293 7.22876549 91.28844595 C15.44554542 91.29475262 23.66221053 91.28399363 31.87896729 91.26448059 C35.37487424 91.25630879 38.87072248 91.25359664 42.36663818 91.25517273 C46.4838656 91.2560521 50.60077491 91.24182151 54.7179184 91.2159462 C56.2283855 91.20878805 57.73888645 91.2066991 59.24936676 91.21006393 C61.31242219 91.21378289 63.37455138 91.19901851 65.4375 91.17956543 C66.59154327 91.17583672 67.74558655 91.172108 68.93460083 91.1682663 C72.35818268 90.74086755 74.25082001 89.83202066 77.00341797 87.78515625 C78.5951492 84.60169379 78.34963434 82.32504201 78.00341797 78.78515625 C76.61592246 75.69366626 74.77714207 72.95994979 72.87841797 70.16015625 C71.74983673 68.47591472 70.62226926 66.79099354 69.49560547 65.10546875 C68.91004883 64.23438477 68.32449219 63.36330078 67.72119141 62.46582031 C66.03480178 59.83413212 64.54536846 57.15879263 63.07373047 54.40234375 C54.98202397 39.86262052 44.31976992 33.25794639 29.64352417 26.45210266 C25.16206254 24.37141623 20.8050104 22.12041381 16.46826172 19.75390625 C15.24532269 19.09213711 14.02226126 18.43059412 12.79907227 17.76928711 C10.49003306 16.52011928 8.18673731 15.26192911 5.88549805 13.99829102 C-4.77927499 8.36900101 -10.22213142 8.66073786 -20.55908203 14.78515625 Z " fill="#EBEBEB" transform="translate(249.99658203125,152.21484375)"/>
<path d="M0 0 C16.17146421 16.17146421 23.57153527 46.09798063 28 68 C28.16371094 68.80179687 28.32742188 69.60359375 28.49609375 70.4296875 C33.23137691 94.92792933 33.10835127 122.58457283 28 147 C27.82839355 147.85513184 27.65678711 148.71026367 27.47998047 149.59130859 C21.52003364 178.71994954 21.52003364 178.71994954 14 190 C11.20263672 190.34057617 11.20263672 190.34057617 7.6796875 190.29296875 C6.54772949 190.28547607 5.41577148 190.2779834 4.24951172 190.27026367 C2.80592285 190.24295166 1.36233398 190.21563965 -0.125 190.1875 C-4.70375 190.125625 -9.2825 190.06375 -14 190 C-14 180.43 -14 170.86 -14 161 C-11.03 161 -8.06 161 -5 161 C-4.67 168.59 -4.34 176.18 -4 184 C-3.01 184 -2.02 184 -1 184 C-0.67 123.28 -0.34 62.56 0 0 Z " fill="#E7F2F8" transform="translate(430,148)"/>
<path d="M0 0 C1.05990513 -0.00233999 1.05990513 -0.00233999 2.14122248 -0.00472724 C4.52658281 -0.00873961 6.91188032 -0.0055467 9.29724121 -0.00241089 C11.0001784 -0.00376483 12.7031153 -0.00554471 14.40605164 -0.00772095 C19.04434865 -0.01229619 23.68262352 -0.01050535 28.32092094 -0.00734186 C33.16381772 -0.00481873 38.00671253 -0.00715567 42.84960938 -0.00872803 C50.98401227 -0.01054986 59.1184061 -0.00814306 67.25280762 -0.00338745 C76.67144131 0.00205519 86.09005337 0.00029255 95.50868654 -0.00521386 C103.57999498 -0.0097446 111.65129688 -0.01039573 119.72260618 -0.00777519 C124.54996311 -0.0062122 129.37730985 -0.00601924 134.20466614 -0.00931168 C138.74194164 -0.01218983 143.27918911 -0.01021574 147.81646156 -0.00441742 C149.48665126 -0.00308952 151.1568433 -0.00348444 152.82703209 -0.00568008 C155.09720419 -0.00839043 157.36728498 -0.00501192 159.63745117 0 C161.54776249 0.00056554 161.54776249 0.00056554 163.49666595 0.0011425 C166.31872559 0.12698364 166.31872559 0.12698364 167.31872559 1.12698364 C167.41376809 3.65239366 167.44429716 6.1503549 167.43225098 8.67605591 C167.432397 9.46624115 167.43254303 10.25642639 167.43269348 11.07055664 C167.43199415 13.69486186 167.42420086 16.319097 167.41638184 18.94338989 C167.41451773 20.7580003 167.41309379 22.5726112 167.41209412 24.38722229 C167.40826838 29.17288594 167.39843762 33.95851944 167.38739014 38.74417114 C167.37717721 43.62372428 167.37259675 48.50328228 167.36755371 53.38284302 C167.3568154 62.96423863 167.33921816 72.54560392 167.31872559 82.12698364 C160.38872559 82.12698364 153.45872559 82.12698364 146.31872559 82.12698364 C146.21993182 74.22500266 146.14729071 66.32338027 146.09899902 58.42092896 C146.08112658 55.73193898 146.05328084 53.04332538 146.01696777 50.35452271 C145.96850943 46.49210803 145.94576932 42.63027156 145.92810059 38.76760864 C145.90745544 37.56332214 145.8868103 36.35903564 145.86553955 35.11825562 C145.86523743 33.99739563 145.8649353 32.87653564 145.86462402 31.72171021 C145.85574158 30.73575867 145.84685913 29.74980713 145.83770752 28.73397827 C146.44958364 25.41776651 147.85131458 24.33389933 150.31872559 22.12698364 C150.90731403 19.88170431 150.90731403 19.88170431 150.75622559 17.56448364 C150.75493652 16.80006958 150.75364746 16.03565552 150.75231934 15.24807739 C150.20146939 12.55337902 149.49338006 11.79436183 147.31872559 10.12698364 C144.7722228 9.67445116 144.7722228 9.67445116 141.85302734 9.74603271 C140.71732803 9.73757324 139.58162872 9.72911377 138.41151428 9.72039795 C137.16466354 9.72647064 135.91781281 9.73254333 134.63317871 9.73880005 C133.32082748 9.73354309 132.00847626 9.72828613 130.65635681 9.72286987 C127.0551239 9.70917977 123.45414848 9.71450175 119.852911 9.72400713 C116.0866666 9.73159502 112.32044446 9.72456055 108.55419922 9.71984863 C102.22908565 9.71438853 95.90407712 9.72158933 89.57897949 9.73587036 C82.26313945 9.75219743 74.94755021 9.7469091 67.63171625 9.73039114 C61.35393198 9.71678349 55.07622327 9.71485307 48.79842901 9.72270715 C45.04746736 9.72738766 41.29662366 9.72799824 37.54566956 9.71809769 C33.3650524 9.70783412 29.18486859 9.7220536 25.00427246 9.73880005 C23.75742172 9.73272736 22.51057098 9.72665466 21.22593689 9.72039795 C19.52238792 9.73308716 19.52238792 9.73308716 17.78442383 9.74603271 C16.79554924 9.74716379 15.80667465 9.74829487 14.78783417 9.74946022 C11.91611503 10.18854226 11.02256676 10.81480751 9.31872559 13.12698364 C8.80841927 15.26549777 8.80841927 15.26549777 8.88122559 17.56448364 C8.86188965 18.32631958 8.84255371 19.08815552 8.82263184 19.87307739 C9.12828807 22.30788733 9.12828807 22.30788733 11.3213501 23.91818237 C13.84188387 26.70551917 13.80624237 28.01262071 13.77282715 31.72171021 C13.77237396 33.40300018 13.77237396 33.40300018 13.77191162 35.11825562 C13.75126648 36.32254211 13.73062134 37.52682861 13.70935059 38.76760864 C13.7036908 40.00492737 13.69803101 41.24224609 13.69219971 42.51705933 C13.6736081 45.79876301 13.63770057 49.07967645 13.59338379 52.3611145 C13.55238723 55.71268431 13.5345206 59.06428808 13.51403809 62.41604614 C13.46992436 68.98670746 13.40087003 75.55669215 13.31872559 82.12698364 C6.38872559 82.12698364 -0.54127441 82.12698364 -7.68127441 82.12698364 C-7.70382544 71.58316671 -7.7221895 61.03936567 -7.73308659 50.49553013 C-7.73831541 45.6001299 -7.74541305 40.70474696 -7.75671387 35.80935669 C-7.76754276 31.08910387 -7.77355125 26.36886772 -7.77615166 21.64860344 C-7.7780059 19.8435941 -7.78162651 18.03858573 -7.78700447 16.23358345 C-7.79421493 13.7143872 -7.79526535 11.19526074 -7.7947998 8.67605591 C-7.79839508 7.92224136 -7.80199036 7.16842682 -7.80569458 6.39176941 C-7.79174384 -0.53883712 -6.72774731 0.00199172 0 0 Z " fill="#DB4123" transform="translate(163.6812744140625,255.87301635742188)"/>
<path d="M0 0 C1.31887864 0.67432872 2.62886502 1.36625952 3.93066406 2.07299805 C4.64256393 2.44245041 5.35446381 2.81190277 6.0879364 3.19255066 C8.38351441 4.38954211 10.66534378 5.61009954 12.94628906 6.8347168 C14.52673068 7.67395359 16.10754329 8.51249212 17.6887207 9.3503418 C20.03861 10.59689532 22.38718287 11.84559664 24.73158264 13.10244751 C28.9480928 15.35831952 33.18632246 17.50939101 37.52050781 19.53393555 C49.32370419 25.16624696 55.29872244 31.57665068 61.67773438 42.92163086 C63.3590251 45.8009088 65.17500911 48.55801184 67.03222656 51.3269043 C67.68271973 52.3048999 68.33321289 53.28289551 69.00341797 54.29052734 C70.27255801 56.19742699 71.54801418 58.10014211 72.83056641 59.99804688 C76.1253145 65.0800536 78.15674741 68.4181468 77.19628906 74.5222168 C75.43613776 77.70725249 74.6973799 78.35518652 71.19628906 79.5222168 C69.08967568 79.62447143 66.97994925 79.66594954 64.87088013 79.67611694 C63.90452505 79.68269032 63.90452505 79.68269032 62.91864765 79.6893965 C60.75614624 79.70276978 58.59368556 79.70895996 56.43115234 79.71508789 C54.88219011 79.72298985 53.33322971 79.73125886 51.78427124 79.73986816 C46.69506586 79.76607155 41.60585231 79.78139145 36.51660156 79.7956543 C34.76493194 79.80101416 33.01326238 79.80639167 31.26159286 79.81178665 C23.97674586 79.83341052 16.69190107 79.85214847 9.40703011 79.86340904 C-1.03627085 79.87965794 -11.47920034 79.91286396 -21.92236125 79.96980989 C-29.26426512 80.00848211 -36.6060695 80.02803834 -43.94807255 80.03332961 C-48.33415074 80.03698605 -52.71983258 80.04903851 -57.10580063 80.08143234 C-61.23125902 80.1114664 -65.35608026 80.11784182 -69.4816246 80.10604858 C-70.99535495 80.10582747 -72.50911447 80.11416375 -74.02274323 80.13170242 C-76.09070905 80.15435954 -78.15635732 80.14611971 -80.22433472 80.13021851 C-81.95929608 80.13518373 -81.95929608 80.13518373 -83.72930717 80.14024925 C-87.76514716 79.32894394 -89.25801497 77.6881096 -91.80371094 74.5222168 C-93.01865512 69.45781789 -91.39440789 66.41466356 -88.87402344 62.1159668 C-87.57592564 60.07380676 -86.25986906 58.04298239 -84.92871094 56.0222168 C-84.24413818 54.96156006 -83.55956543 53.90090332 -82.85424805 52.80810547 C-81.48097757 50.68551433 -80.10111704 48.56717076 -78.71435547 46.45336914 C-77.06222586 43.91880895 -75.45144691 41.36601208 -73.86230469 38.79174805 C-73.03105516 37.47224485 -72.19909222 36.15319063 -71.36621094 34.8347168 C-70.66625 33.71709961 -69.96628906 32.59948242 -69.24511719 31.44799805 C-63.38828515 24.42917053 -54.05306785 20.97563019 -46.05371094 16.8972168 C-39.26300141 13.42816468 -32.48619431 9.95897017 -25.87011719 6.1628418 C-24.97583008 5.65188965 -24.08154297 5.1409375 -23.16015625 4.61450195 C-21.51429395 3.66520901 -19.87625023 2.70217239 -18.24804688 1.72290039 C-17.50973633 1.29831543 -16.77142578 0.87373047 -16.01074219 0.4362793 C-15.07452026 -0.1213208 -15.07452026 -0.1213208 -14.11938477 -0.69018555 C-9.19947718 -2.3635247 -4.6722303 -2.10107116 0 0 Z M-15.53027344 6.2331543 C-16.63588623 6.81395752 -17.74149902 7.39476074 -18.88061523 7.99316406 C-20.06345494 8.62758524 -21.24615064 9.26227496 -22.42871094 9.8972168 C-23.64282691 10.53997687 -24.85743068 11.18181636 -26.07250977 11.82275391 C-28.50762088 13.10893284 -30.93975588 14.40048706 -33.36962891 15.6965332 C-36.41376072 17.314905 -39.46622139 18.91486888 -42.52636719 20.50268555 C-44.18132685 21.36334004 -45.83627563 22.22401548 -47.49121094 23.0847168 C-48.22484863 23.4648291 -48.95848633 23.84494141 -49.71435547 24.23657227 C-51.09194686 24.95914344 -52.46307371 25.69420619 -53.82666016 26.44287109 C-55.14417557 27.16215186 -56.47995614 27.84894109 -57.83154297 28.50195312 C-64.5231938 32.05775069 -67.56528182 37.68554665 -71.30371094 44.0847168 C-72.60550693 46.24973579 -73.90887597 48.41380976 -75.21386719 50.5769043 C-76.1383667 52.1232959 -76.1383667 52.1232959 -77.08154297 53.70092773 C-79.72177446 58.02620632 -82.61085928 62.14738362 -85.58105469 66.25268555 C-87.00668404 68.89898156 -87.13647699 70.55803921 -86.80371094 73.5222168 C-85.80514774 74.74176347 -85.80514774 74.74176347 -83.82322693 74.64247131 C-82.9549678 74.6402507 -82.08670868 74.63803009 -81.19213867 74.63574219 C-79.7207267 74.63562889 -79.7207267 74.63562889 -78.21958923 74.63551331 C-77.15293533 74.63035202 -76.08628143 74.62519073 -74.98730469 74.61987305 C-73.90111343 74.6184581 -72.81492218 74.61704315 -71.69581604 74.61558533 C-68.21092019 74.60996728 -64.72608752 74.59741172 -61.24121094 74.5847168 C-58.88509207 74.57970412 -56.5289722 74.57514081 -54.17285156 74.57104492 C-48.3831163 74.55999199 -42.59341813 74.54323631 -36.80371094 74.5222168 C-36.79436523 73.57378906 -36.78501953 72.62536133 -36.77539062 71.64819336 C-36.73131863 68.12156921 -36.66968311 64.59615477 -36.59619141 61.07006836 C-36.56800559 59.54544249 -36.54677905 58.02067114 -36.53271484 56.49584961 C-36.51125045 54.30075744 -36.46458925 52.10740968 -36.41308594 49.9128418 C-36.39213867 48.59316406 -36.37119141 47.27348633 -36.34960938 45.91381836 C-35.727184 42.0467641 -34.90350176 40.83434699 -31.80371094 38.5222168 C-29.51518577 38.06778693 -27.44798698 38.08457458 -25.12011719 38.08862305 C-22.53049224 37.69473939 -22.53049224 37.69473939 -20.67480469 35.02612305 C-16.44406547 31.33645796 -12.73751865 31.78510247 -7.30371094 31.8972168 C-5.89798828 31.86821289 -5.89798828 31.86821289 -4.46386719 31.83862305 C2.46882745 31.88779109 2.46882745 31.88779109 6.06738281 35.02612305 C6.76992188 35.84983398 7.47246094 36.67354492 8.19628906 37.5222168 C10.47889077 38.17823042 10.47889077 38.17823042 12.75878906 38.0847168 C15.72361925 38.08985515 16.88453685 38.2896812 19.29467773 40.08740234 C21.89938342 43.4224556 21.7389701 45.71112199 21.80566406 49.9128418 C21.82220032 50.61745544 21.83873657 51.32206909 21.85577393 52.04803467 C21.90420046 54.28951782 21.92561093 56.53032293 21.94628906 58.7722168 C21.97445354 60.29568831 22.00438165 61.81912831 22.03613281 63.3425293 C22.10995499 67.06894436 22.15956375 70.7952306 22.19628906 74.5222168 C29.15632353 74.54748518 36.11634626 74.56504902 43.07641602 74.57714844 C45.44621218 74.58219021 47.81600521 74.58902345 50.18579102 74.59765625 C53.58382945 74.6097287 56.98182692 74.61544651 60.37988281 74.61987305 C61.44653671 74.62503433 62.51319061 74.63019562 63.61216736 74.63551331 C64.59310867 74.63558884 65.57404999 74.63566437 66.5847168 74.63574219 C67.45297592 74.6379628 68.32123505 74.64018341 69.21580505 74.64247131 C71.19772587 74.74176347 71.19772587 74.74176347 72.19628906 73.5222168 C72.93113874 68.64387735 70.72666522 65.75529172 68.00878906 61.9597168 C67.09282545 60.64072248 66.17887187 59.32033075 65.26660156 57.9987793 C64.77321289 57.28753906 64.27982422 56.57629883 63.77148438 55.84350586 C62.06981892 53.33584387 60.43663707 50.79229112 58.81347656 48.2331543 C58.24395264 47.33798096 57.67442871 46.44280762 57.08764648 45.52050781 C55.97013367 43.75897199 54.85811449 41.99393638 53.75219727 40.22509766 C48.44161093 31.91727663 42.42317228 28.42035891 33.75878906 24.0222168 C24.50025898 19.26255516 15.32788002 14.36949869 6.2043457 9.35620117 C5.34188232 8.8824707 4.47941895 8.40874023 3.59082031 7.9206543 C2.83647705 7.50477051 2.08213379 7.08888672 1.30493164 6.66040039 C0.60907959 6.2847998 -0.08677246 5.90919922 -0.80371094 5.5222168 C-1.45122314 5.14274902 -2.09873535 4.76328125 -2.76586914 4.37231445 C-7.6665435 2.3279694 -11.04515502 3.84995317 -15.53027344 6.2331543 Z " fill="#4B443F" transform="translate(250.8037109375,163.477783203125)"/>
<path d="M0 0 C8.28247382 5.99093947 15.38784248 14.9445927 17.1875 25.25 C17.25540675 27.49907152 17.27249984 29.75001605 17.25 32 C17.24097656 33.17046875 17.23195313 34.3409375 17.22265625 35.546875 C17.21105469 36.43890625 17.19945312 37.3309375 17.1875 38.25 C13.5575 38.25 9.9275 38.25 6.1875 38.25 C5.6925 35.28 5.6925 35.28 5.1875 32.25 C4.1975 32.25 3.2075 32.25 2.1875 32.25 C1.8575 34.23 1.5275 36.21 1.1875 38.25 C-2.7725 38.25 -6.7325 38.25 -10.8125 38.25 C-11.3075 35.28 -11.3075 35.28 -11.8125 32.25 C-12.8025 32.25 -13.7925 32.25 -14.8125 32.25 C-15.1425 34.23 -15.4725 36.21 -15.8125 38.25 C-20.7625 38.25 -25.7125 38.25 -30.8125 38.25 C-31.3075 35.28 -31.3075 35.28 -31.8125 32.25 C-32.8025 32.25 -33.7925 32.25 -34.8125 32.25 C-35.1425 34.23 -35.4725 36.21 -35.8125 38.25 C-39.7725 38.25 -43.7325 38.25 -47.8125 38.25 C-48.1425 36.27 -48.4725 34.29 -48.8125 32.25 C-49.8025 32.25 -50.7925 32.25 -51.8125 32.25 C-52.1425 34.23 -52.4725 36.21 -52.8125 38.25 C-56.7725 38.25 -60.7325 38.25 -64.8125 38.25 C-65.49883819 26.58225079 -62.3774734 16.2807923 -54.8125 7.25 C-39.8066726 -8.64868853 -18.78972223 -11.59702923 0 0 Z " fill="#EDD3A6" transform="translate(393.8125,65.75)"/>
<path d="M0 0 C13.53 0 27.06 0 41 0 C41 18.15 41 36.3 41 55 C27.47 55 13.94 55 0 55 C0 36.85 0 18.7 0 0 Z " fill="#646668" transform="translate(223,283)"/>
<path d="M0 0 C2.7723809 1.36707961 5.49012601 2.81150207 8.20654297 4.28662109 C9.70109009 5.08326172 9.70109009 5.08326172 11.22583008 5.89599609 C14.37141817 7.5774676 17.50805852 9.27481679 20.64404297 10.97412109 C22.70641999 12.08242289 24.76891781 13.19049993 26.83154297 14.29833984 C28.79049291 15.35579212 30.74884897 16.41434547 32.70654297 17.47412109 C33.6154126 17.96565674 34.52428223 18.45719238 35.46069336 18.96362305 C37.86810056 20.27871144 40.25691936 21.62269502 42.64404297 22.97412109 C43.69462891 23.54130859 44.74521484 24.10849609 45.82763672 24.69287109 C50.07277599 28.13137502 52.70136914 32.40983311 55.64404297 36.97412109 C56.31661133 38.00939941 56.98917969 39.04467773 57.68212891 40.11132812 C59.8093745 43.41047833 61.91717915 46.72125026 64.01904297 50.03662109 C65.4419395 52.27852142 66.86681355 54.51913467 68.29248047 56.75927734 C68.91300293 57.73775635 69.53352539 58.71623535 70.17285156 59.72436523 C71.45624904 61.85459485 71.45624904 61.85459485 72.64404297 62.97412109 C72.76904297 65.47412109 72.76904297 65.47412109 72.64404297 67.97412109 C71.64404297 68.97412109 71.64404297 68.97412109 69.66355896 69.09437561 C68.79529984 69.092155 67.92704071 69.08993439 67.0324707 69.08764648 C66.05152939 69.08757095 65.07058807 69.08749542 64.05992126 69.0874176 C62.99326736 69.08225632 61.92661346 69.07709503 60.82763672 69.07177734 C59.19834984 69.06965492 59.19834984 69.06965492 57.53614807 69.06748962 C54.05125222 69.06187158 50.56641955 69.04931602 47.08154297 69.03662109 C44.7254241 69.03160842 42.36930423 69.02704511 40.01318359 69.02294922 C34.22344833 69.01189628 28.43375016 68.9951406 22.64404297 68.97412109 C22.64404297 68.64412109 22.64404297 68.31412109 22.64404297 67.97412109 C35.84404297 67.64412109 49.04404297 67.31412109 62.64404297 66.97412109 C60.12779297 63.01412109 57.61154297 59.05412109 55.01904297 54.97412109 C54.23835449 53.74177734 53.45766602 52.50943359 52.65332031 51.23974609 C50.67345745 48.13549805 48.66629567 45.05090422 46.64404297 41.97412109 C46.12737061 41.17200195 45.61069824 40.36988281 45.07836914 39.54345703 C41.5453104 34.39371788 37.80535595 31.87516787 32.20654297 29.22412109 C30.52237053 28.3880462 28.83880457 27.55074881 27.15576172 26.71240234 C26.26679199 26.27621582 25.37782227 25.8400293 24.46191406 25.390625 C21.47312034 23.88820071 18.53695383 22.30781176 15.60107422 20.70458984 C14.58907959 20.15706055 13.57708496 19.60953125 12.53442383 19.04541016 C10.56789367 17.97990778 8.60618817 16.90543763 6.65014648 15.82080078 C1.14804531 12.88336597 -3.98508471 10.30116152 -10.35595703 10.97412109 C-13.70953757 12.03100052 -16.66293006 13.58410903 -19.73095703 15.28662109 C-20.58512207 15.737229 -21.43928711 16.18783691 -22.31933594 16.65209961 C-24.10612448 17.59728485 -25.88784248 18.55211325 -27.66455078 19.51611328 C-31.17280779 21.41663132 -34.7089206 23.26177717 -38.24511719 25.10961914 C-41.31304752 26.71650113 -44.37351658 28.33671192 -47.42211914 29.97998047 C-49.35595703 30.97412109 -49.35595703 30.97412109 -52.57080078 32.28271484 C-56.4829014 34.65850666 -58.22366737 37.72693805 -60.54345703 41.59912109 C-61.39021848 42.96686296 -62.23793185 44.33401581 -63.08642578 45.70068359 C-64.16537109 47.44091797 -65.24431641 49.18115234 -66.35595703 50.97412109 C-69.98595703 56.58412109 -73.61595703 62.19412109 -77.35595703 67.97412109 C-63.82595703 67.97412109 -50.29595703 67.97412109 -36.35595703 67.97412109 C-36.35595703 68.30412109 -36.35595703 68.63412109 -36.35595703 68.97412109 C-43.3159915 68.99938947 -50.27601423 69.01695332 -57.23608398 69.02905273 C-59.60588015 69.03409451 -61.97567318 69.04092774 -64.34545898 69.04956055 C-67.74349742 69.06163299 -71.14149488 69.0673508 -74.53955078 69.07177734 C-75.60620468 69.07693863 -76.67285858 69.08209991 -77.77183533 69.0874176 C-78.75277664 69.08749313 -79.73371796 69.08756866 -80.74438477 69.08764648 C-81.61264389 69.0898671 -82.48090302 69.09208771 -83.37547302 69.09437561 C-85.35595703 68.97412109 -85.35595703 68.97412109 -86.35595703 67.97412109 C-86.72641981 64.03758784 -86.09133621 61.95822074 -83.89892578 58.70849609 C-83.37008789 57.90935791 -82.84125 57.11021973 -82.29638672 56.28686523 C-81.71791992 55.44115967 -81.13945312 54.5954541 -80.54345703 53.72412109 C-75.39844096 46.23318717 -75.39844096 46.23318717 -70.92236328 38.33740234 C-64.03776552 25.20223709 -53.79809937 20.56178141 -40.64794922 14.53125 C-35.36289848 12.03139435 -30.27447351 9.19253429 -25.16845703 6.34912109 C-22.61106852 4.93820329 -20.05240947 3.53075999 -17.48339844 2.14111328 C-15.69322818 1.15912868 -13.93272613 0.12333362 -12.18017578 -0.92431641 C-7.65323482 -2.69001122 -4.40071887 -1.91625085 0 0 Z " fill="#DC4223" transform="translate(250.35595703125,169.02587890625)"/>
<path d="M0 0 C6.27 0 12.54 0 19 0 C19 24.09 19 48.18 19 73 C12.07 73 5.14 73 -2 73 C-2.09879376 65.09801902 -2.17143488 57.19639663 -2.21972656 49.29394531 C-2.237599 46.60495534 -2.26544475 43.91634174 -2.30175781 41.22753906 C-2.35021615 37.36512439 -2.37295626 33.50328792 -2.390625 29.640625 C-2.41127014 28.4363385 -2.43191528 27.232052 -2.45318604 25.99127197 C-2.45348816 24.87041199 -2.45379028 23.749552 -2.45410156 22.59472656 C-2.46298401 21.60877502 -2.47186646 20.62282349 -2.48101807 19.60699463 C-1.86924831 16.29135934 -0.46699458 15.20625715 2 13 C2.55254593 10.78614539 2.55254593 10.78614539 2.375 8.5 C2.36210937 7.7471875 2.34921875 6.994375 2.3359375 6.21875 C2.05567923 3.59756473 2.05567923 3.59756473 0 0 Z " fill="#FE6141" transform="translate(312,265)"/>
<path d="M0 0 C6.27 0 12.54 0 19 0 C18.34 1.32 17.68 2.64 17 4 C16.61353939 6.22077744 16.61353939 6.22077744 16.625 8.5 C16.58246094 9.62921875 16.58246094 9.62921875 16.5390625 10.78125 C16.80945108 13.18615946 16.80945108 13.18615946 19.00042725 14.78900146 C21.52271195 17.57798114 21.48753674 18.88342155 21.45410156 22.59472656 C21.45364838 24.27601654 21.45364838 24.27601654 21.45318604 25.99127197 C21.43254089 27.19555847 21.41189575 28.39984497 21.390625 29.640625 C21.38496521 30.87794373 21.37930542 32.11526245 21.37347412 33.39007568 C21.35488251 36.67177936 21.31897498 39.95269281 21.2746582 43.23413086 C21.23366165 46.58570067 21.21579501 49.93730444 21.1953125 53.2890625 C21.15119878 59.85972382 21.08214444 66.4297085 21 73 C14.07 73 7.14 73 0 73 C0 48.91 0 24.82 0 0 Z " fill="#FE6141" transform="translate(156,265)"/>
<path d="M0 0 C4.95 0 9.9 0 15 0 C15 27.72 15 55.44 15 84 C10.05 84 5.1 84 0 84 C0 56.28 0 28.56 0 0 Z " fill="#EED4A7" transform="translate(363,109)"/>
<path d="M0 0 C0.66 0 1.32 0 2 0 C17.52755254 59.5819263 17.52755254 59.5819263 5 81 C4.01 81.99 4.01 81.99 3 83 C0.625 83 0.625 83 -2 82 C-9.95124989 72.64558836 -10.81600269 59.27528099 -10.23095703 47.51806641 C-9.40933857 38.560167 -7.05573071 29.73754538 -5 21 C-4.63986816 19.4519165 -4.63986816 19.4519165 -4.27246094 17.87255859 C-2.88195467 11.90662457 -1.456545 5.95014128 0 0 Z " fill="#6CD227" transform="translate(92,224)"/>
<path d="M0 0 C8.34555985 6.03657132 15.27001596 14.91577023 17.1875 25.25 C17.25298492 26.83211573 17.27328381 28.41670081 17.25 30 C17.24097656 30.79921875 17.23195313 31.5984375 17.22265625 32.421875 C17.21105469 33.02515625 17.19945312 33.6284375 17.1875 34.25 C15.1178474 31.5691342 13.31934751 28.82962032 11.5625 25.9375 C5.45665397 16.77119287 -3.79983347 11.64641779 -14.3125 9 C-26.14040148 6.70411618 -37.60986425 8.83273707 -47.8125 15.25 C-53.91128405 19.78524228 -58.15619826 24.62754184 -61.8125 31.25 C-62.4725 32.24 -63.1325 33.23 -63.8125 34.25 C-64.75060078 24.82729886 -62.38719794 17.05412676 -56.72265625 9.44140625 C-41.67667362 -7.86790368 -20.21555871 -12.47705647 0 0 Z " fill="#F4E2C3" transform="translate(393.8125,65.75)"/>
<path d="M0 0 C17.19338969 -0.02332856 34.38677447 -0.04097896 51.58017635 -0.05181217 C59.562815 -0.05697522 67.54544383 -0.06401809 75.52807617 -0.07543945 C82.48323799 -0.08538602 89.43839269 -0.09185336 96.39356142 -0.09408849 C100.07851927 -0.09539565 103.76345678 -0.09848179 107.44840813 -0.10573006 C111.55537708 -0.1137434 115.66231037 -0.11399116 119.76928711 -0.11352539 C120.99998932 -0.11712067 122.23069153 -0.12071594 123.49868774 -0.12442017 C124.61073074 -0.1230455 125.72277374 -0.12167084 126.86851501 -0.12025452 C127.84100661 -0.12117631 128.81349821 -0.1220981 129.81545925 -0.12304783 C132 0 132 0 133 1 C133.125 4 133.125 4 133 7 C131.31503436 8.68496564 129.22336675 8.12607996 126.91320801 8.12698364 C125.81102432 8.12980347 124.70884064 8.13262329 123.57325745 8.13552856 C122.35347702 8.13350433 121.13369659 8.1314801 119.87695312 8.12939453 C117.96256691 8.13202301 117.96256691 8.13202301 116.00950623 8.13470459 C112.49927008 8.13927849 108.9890632 8.13748955 105.47882652 8.1343255 C101.81307265 8.13180168 98.14732135 8.1341395 94.48156738 8.13571167 C88.32445829 8.1375333 82.16736118 8.13512723 76.01025391 8.13037109 C68.88194395 8.12492848 61.7536626 8.12669115 54.62535334 8.1321975 C48.51581149 8.13672882 42.40627827 8.13737909 36.29673529 8.13475883 C32.64309565 8.13319616 28.98946947 8.13300202 25.33583069 8.13629532 C21.26488539 8.13970815 17.19398975 8.13498399 13.12304688 8.12939453 C11.29337624 8.13243088 11.29337624 8.13243088 9.42674255 8.13552856 C7.77346703 8.13129883 7.77346703 8.13129883 6.08679199 8.12698364 C5.12297356 8.12660662 4.15915512 8.12622959 3.16613007 8.12584114 C1 8 1 8 0 7 C-0.04092937 4.66702567 -0.04241723 2.33294775 0 0 Z " fill="#E8E8E8" transform="translate(177,270)"/>
<path d="M0 0 C3.63 0 7.26 0 11 0 C11 27.72 11 55.44 11 84 C7.37 84 3.74 84 0 84 C0 56.28 0 28.56 0 0 Z " fill="#EFD4A7" transform="translate(400,109)"/>
<path d="M0 0 C3.63 0 7.26 0 11 0 C11 27.72 11 55.44 11 84 C7.37 84 3.74 84 0 84 C0 56.28 0 28.56 0 0 Z " fill="#EFD4A7" transform="translate(383,109)"/>
<path d="M0 0 C3.63 0 7.26 0 11 0 C11 27.72 11 55.44 11 84 C7.37 84 3.74 84 0 84 C0 56.28 0 28.56 0 0 Z " fill="#EFD4A7" transform="translate(330,109)"/>
<path d="M0 0 C3.3 0 6.6 0 10 0 C10 27.72 10 55.44 10 84 C6.7 84 3.4 84 0 84 C0 56.28 0 28.56 0 0 Z " fill="#EFD4A7" transform="translate(347,109)"/>
<path d="M0 0 C1.27423828 -0.00193359 1.27423828 -0.00193359 2.57421875 -0.00390625 C3.91419922 0.00189453 3.91419922 0.00189453 5.28125 0.0078125 C6.17457031 0.00394531 7.06789062 0.00007812 7.98828125 -0.00390625 C8.83777344 -0.00261719 9.68726563 -0.00132812 10.5625 0 C11.34689453 0.00112793 12.13128906 0.00225586 12.93945312 0.00341797 C14.78125 0.1328125 14.78125 0.1328125 15.78125 1.1328125 C15.86983646 3.87175335 15.89648479 6.5853452 15.87890625 9.32421875 C15.8774913 10.14405746 15.87607635 10.96389618 15.87461853 11.80857849 C15.86900289 14.43752632 15.85644779 17.06639023 15.84375 19.6953125 C15.83873701 21.47330607 15.83417376 23.25130096 15.83007812 25.02929688 C15.81987752 29.39719408 15.80030532 33.7649089 15.78125 38.1328125 C8.85125 38.1328125 1.92125 38.1328125 -5.21875 38.1328125 C-5.24165839 32.88170054 -5.26158563 27.63076072 -5.27368164 22.37963867 C-5.27872218 20.59187229 -5.28555454 18.80411005 -5.29418945 17.01635742 C-5.3062673 14.45230082 -5.31198094 11.88829853 -5.31640625 9.32421875 C-5.32156754 8.5200502 -5.32672882 7.71588165 -5.33204651 6.88734436 C-5.33224215 4.96879535 -5.28076983 3.05035882 -5.21875 1.1328125 C-3.66268249 -0.42325501 -2.15917629 0.00310481 0 0 Z " fill="#646668" transform="translate(238.21875,199.8671875)"/>
<path d="M0 0 C3.65088507 1.21696169 4.10078998 2.25692339 6.13671875 5.4375 C6.71357422 6.33210938 7.29042969 7.22671875 7.88476562 8.1484375 C8.47966797 9.08945312 9.07457031 10.03046875 9.6875 11 C10.29400391 11.94101562 10.90050781 12.88203125 11.52539062 13.8515625 C16 20.83779176 16 20.83779176 16 22 C6.1 22 -3.8 22 -14 22 C-12.50400834 19.00801669 -11.02852556 16.42546361 -9.1796875 13.671875 C-8.37724609 12.47304688 -8.37724609 12.47304688 -7.55859375 11.25 C-7.00300781 10.425 -6.44742187 9.6 -5.875 8.75 C-5.31167969 7.90953125 -4.74835938 7.0690625 -4.16796875 6.203125 C-2.78072151 4.13401047 -1.39133629 2.06636617 0 0 Z " fill="#FA846C" transform="translate(286,316)"/>
<path d="M0 0 C3.65088507 1.21696169 4.10078998 2.25692339 6.13671875 5.4375 C6.71357422 6.33210938 7.29042969 7.22671875 7.88476562 8.1484375 C8.47966797 9.08945312 9.07457031 10.03046875 9.6875 11 C10.29400391 11.94101562 10.90050781 12.88203125 11.52539062 13.8515625 C16 20.83779176 16 20.83779176 16 22 C6.1 22 -3.8 22 -14 22 C-10.87729435 16.37912982 -7.87971372 11.12871562 -4.1875 5.9375 C-3.78080078 5.35806641 -3.37410156 4.77863281 -2.95507812 4.18164062 C-1.97396793 2.7850014 -0.98757663 1.39207425 0 0 Z " fill="#FA846C" transform="translate(199,316)"/>
<path d="M0 0 C9.57 0 19.14 0 29 0 C29 5.28 29 10.56 29 16 C27.535625 15.175 26.07125 14.35 24.5625 13.5 C19.55200799 11.01948844 15.53976596 9.87613366 10 11 C7.7586956 11.89883636 5.71518191 12.91116689 3.62890625 14.125 C2 15 2 15 0 15 C0 10.05 0 5.1 0 0 Z " fill="#F6826B" transform="translate(229,136)"/>
<path d="M0 0 C9.9 0 19.8 0 30 0 C23.25 11.25 23.25 11.25 19.625 16.625 C18.59246094 18.16027344 18.59246094 18.16027344 17.5390625 19.7265625 C16.77722656 20.85191406 16.77722656 20.85191406 16 22 C12.34911493 20.78303831 11.89921002 19.74307661 9.86328125 16.5625 C9.28642578 15.66789062 8.70957031 14.77328125 8.11523438 13.8515625 C7.52033203 12.91054688 6.92542969 11.96953125 6.3125 11 C5.70599609 10.05898438 5.09949219 9.11796875 4.47460938 8.1484375 C0 1.16220824 0 1.16220824 0 0 Z " fill="#FA846C" transform="translate(185,283)"/>
<path d="M0 0 C9.9 0 19.8 0 30 0 C25.33333333 7.33333333 20.66666667 14.66666667 16 22 C12.34911493 20.78303831 11.89921002 19.74307661 9.86328125 16.5625 C9.28642578 15.66789062 8.70957031 14.77328125 8.11523438 13.8515625 C7.52033203 12.91054688 6.92542969 11.96953125 6.3125 11 C5.70599609 10.05898438 5.09949219 9.11796875 4.47460938 8.1484375 C0 1.16220824 0 1.16220824 0 0 Z " fill="#FB846D" transform="translate(272,283)"/>
<path d="M0 0 C0.33 0 0.66 0 1 0 C1 14.19 1 28.38 1 43 C-1.84624553 40.15375447 -3.7229584 38.1496368 -5.796875 34.890625 C-6.28027344 34.13652344 -6.76367188 33.38242187 -7.26171875 32.60546875 C-7.75285156 31.82816406 -8.24398437 31.05085938 -8.75 30.25 C-9.25660156 29.45722656 -9.76320312 28.66445313 -10.28515625 27.84765625 C-11.52801692 25.90128954 -12.76611286 23.95206294 -14 22 C-11.07507035 16.40539553 -7.83295708 11.12997468 -4.25 5.9375 C-3.84918213 5.35331299 -3.44836426 4.76912598 -3.03540039 4.16723633 C-2.05171625 2.75810722 -1.02940419 1.3760837 0 0 Z " fill="#EF8069" transform="translate(217,289)"/>
<path d="M0 0 C2.84624553 2.84624553 4.7229584 4.8503632 6.796875 8.109375 C7.52197266 9.24052734 7.52197266 9.24052734 8.26171875 10.39453125 C8.75285156 11.17183594 9.24398438 11.94914062 9.75 12.75 C10.25660156 13.54277344 10.76320313 14.33554687 11.28515625 15.15234375 C12.52801692 17.09871046 13.76611286 19.04793706 15 21 C13.34076854 23.60736372 11.68117102 26.21448231 10.01953125 28.8203125 C8.67616301 30.93540292 7.34017593 33.05519998 6.01171875 35.1796875 C5.07779297 36.66855469 5.07779297 36.66855469 4.125 38.1875 C3.55007813 39.10917969 2.97515625 40.03085937 2.3828125 40.98046875 C1.92648437 41.64691406 1.47015625 42.31335938 1 43 C0.67 43 0.34 43 0 43 C0 28.81 0 14.62 0 0 Z " fill="#F1816A" transform="translate(269,289)"/>
<path d="M0 0 C2.84624553 2.84624553 4.7229584 4.8503632 6.796875 8.109375 C7.52197266 9.24052734 7.52197266 9.24052734 8.26171875 10.39453125 C8.75285156 11.17183594 9.24398437 11.94914062 9.75 12.75 C10.25660156 13.54277344 10.76320312 14.33554687 11.28515625 15.15234375 C12.52801692 17.09871046 13.76611286 19.04793706 15 21 C13.34076854 23.60736372 11.68117102 26.21448231 10.01953125 28.8203125 C8.67616301 30.93540292 7.34017593 33.05519998 6.01171875 35.1796875 C5.07779297 36.66855469 5.07779297 36.66855469 4.125 38.1875 C3.55007812 39.10917969 2.97515625 40.03085937 2.3828125 40.98046875 C1.92648438 41.64691406 1.47015625 42.31335938 1 43 C0.67 43 0.34 43 0 43 C0 28.81 0 14.62 0 0 Z " fill="#F0806A" transform="translate(182,289)"/>
<path d="M0 0 C2.97 0 5.94 0 9 0 C9 11.88 9 23.76 9 36 C6.03 36 3.06 36 0 36 C0 24.12 0 12.24 0 0 Z " fill="#D6E0E5" transform="translate(416,229)"/>
<path d="M0 0 C2.97 0 5.94 0 9 0 C9 11.55 9 23.1 9 35 C6.03 35 3.06 35 0 35 C0 23.45 0 11.9 0 0 Z " fill="#D9E4E9" transform="translate(416,149)"/>
<path d="M0 0 C0.33 0 0.66 0 1 0 C1 13.2 1 26.4 1 40 C-3.01736165 35.98263835 -5.90775349 32.58311131 -8.9375 27.9375 C-9.36095703 27.32583984 -9.78441406 26.71417969 -10.22070312 26.08398438 C-11.40234375 24.27734375 -11.40234375 24.27734375 -13 21 C-12.26025391 19.05200195 -12.26025391 19.05200195 -11 17 C-10.5970874 16.33516602 -10.1941748 15.67033203 -9.77905273 14.98535156 C-8.33547512 12.73786545 -6.88946156 10.49208149 -5.4375 8.25 C-4.93025391 7.45722656 -4.42300781 6.66445313 -3.90039062 5.84765625 C-3.41634766 5.09871094 -2.93230469 4.34976562 -2.43359375 3.578125 C-1.99072021 2.89137695 -1.54784668 2.20462891 -1.09155273 1.49707031 C-0.73134033 1.00303711 -0.37112793 0.50900391 0 0 Z " fill="#FB846D" transform="translate(303,290)"/>
<path d="M0 0 C2.31 0 4.62 0 7 0 C7 11.22 7 22.44 7 34 C4.69 34 2.38 34 0 34 C0 22.78 0 11.56 0 0 Z " fill="#E8F4FA" transform="translate(417,270)"/>
<path d="M0 0 C2.31 0 4.62 0 7 0 C7 11.22 7 22.44 7 34 C4.69 34 2.38 34 0 34 C0 22.78 0 11.56 0 0 Z " fill="#E8F4FA" transform="translate(417,190)"/>
<path d="M0 0 C4.95 0 9.9 0 15 0 C15 4.95 15 9.9 15 15 C10.05 15 5.1 15 0 15 C0 10.05 0 5.1 0 0 Z " fill="#EAEAEA" transform="translate(236,116)"/>
<path d="M0 0 C3.88192126 3.76774711 7.79531881 7.62797789 11 12 C11 12.66 11 13.32 11 14 C3.74 14 -3.52 14 -11 14 C-7.39758945 9.19678593 -3.87208829 4.55539799 0 0 Z " fill="#B2B3B4" transform="translate(243,97)"/>
<path d="M0 0 C9.9 0 19.8 0 30 0 C28.68 2.31 27.36 4.62 26 7 C14.615 6.505 14.615 6.505 3 6 C2.01 4.02 1.02 2.04 0 0 Z " fill="#FC6344" transform="translate(272,283)"/>
<path d="M0 0 C9.9 0 19.8 0 30 0 C29.01 1.98 28.02 3.96 27 6 C19.08 6 11.16 6 3 6 C2.01 4.02 1.02 2.04 0 0 Z " fill="#FC6344" transform="translate(185,283)"/>
<path d="M0 0 C0.68964844 -0.01224609 1.37929688 -0.02449219 2.08984375 -0.03710938 C3.89477494 -0.04238695 5.69917842 0.06565542 7.5 0.1875 C8.16 0.8475 8.82 1.5075 9.5 2.1875 C9.25 4.25 9.25 4.25 8.5 6.1875 C5.52760209 7.67369895 2.80380422 7.31927009 -0.5 7.3125 C-2.3871875 7.31636719 -2.3871875 7.31636719 -4.3125 7.3203125 C-7.5 7.1875 -7.5 7.1875 -9.5 6.1875 C-9.5 4.5375 -9.5 2.8875 -9.5 1.1875 C-6.46576019 -0.3296199 -3.32495206 0.00310743 0 0 Z " fill="#46403A" transform="translate(472.5,336.8125)"/>
<path d="M0 0 C0.69802734 0.00386719 1.39605469 0.00773437 2.11523438 0.01171875 C2.80939453 0.00785156 3.50355469 0.00398438 4.21875 0 C9.42445449 0.01007881 9.42445449 0.01007881 11.67773438 1.13671875 C11.67773438 2.78671875 11.67773438 4.43671875 11.67773438 6.13671875 C8.72186327 7.6146543 6.02775792 7.30725526 2.74023438 7.32421875 C1.49371094 7.33839844 0.2471875 7.35257812 -1.03710938 7.3671875 C-4.32226562 7.13671875 -4.32226562 7.13671875 -7.32226562 5.13671875 C-6.15792581 -0.0196433 -5.34514083 0.01036885 0 0 Z " fill="#46403A" transform="translate(37.322265625,336.86328125)"/>
<path d="M0 0 C0.33 0 0.66 0 1 0 C1 5.61 1 11.22 1 17 C-1.97 17 -4.94 17 -8 17 C-8.7278486 12.81487052 -8.61082768 10.94152186 -6.25390625 7.30859375 C-4.24203901 4.78748382 -2.22377797 2.33661237 0 0 Z " fill="#E47C66" transform="translate(227,221)"/>
<path d="M0 0 C8.92982456 8.92982456 8.92982456 8.92982456 9.25 13.8125 C9.1675 14.864375 9.085 15.91625 9 17 C6.03 17 3.06 17 0 17 C0 11.39 0 5.78 0 0 Z " fill="#E77D67" transform="translate(259,221)"/>
<path d="M0 0 C6.15234375 -0.09765625 6.15234375 -0.09765625 8 0 C9 1 9 1 9.09765625 4.59765625 C9.0909822 6.08596867 9.07902183 7.57426432 9.0625 9.0625 C9.05798828 9.82111328 9.05347656 10.57972656 9.04882812 11.36132812 C9.0370068 13.24091871 9.01907078 15.12046899 9 17 C0.07121455 8.08602182 0.07121455 8.08602182 -0.25 3.1875 C-0.1675 2.135625 -0.085 1.08375 0 0 Z " fill="#E97E68" transform="translate(259,206)"/>
<path d="M0 0 C1.134375 0.020625 2.26875 0.04125 3.4375 0.0625 C3.98549248 4.36815521 4.1854888 6.81776993 1.9140625 10.59765625 C0.1661179 12.84858083 -1.58309855 15.01189706 -3.5625 17.0625 C-3.8925 17.0625 -4.2225 17.0625 -4.5625 17.0625 C-4.58934679 14.41659986 -4.60926357 11.77096904 -4.625 9.125 C-4.63337891 8.37025391 -4.64175781 7.61550781 -4.65039062 6.83789062 C-4.65902441 4.91255687 -4.61474333 2.98714419 -4.5625 1.0625 C-3.5625 0.0625 -3.5625 0.0625 0 0 Z " fill="#F3816A" transform="translate(223.5625,205.9375)"/>
<path d="M0 0 C6.96491228 6.96491228 6.96491228 6.96491228 7.125 11.6875 C7.08375 12.780625 7.0425 13.87375 7 15 C4.69 15 2.38 15 0 15 C0 10.05 0 5.1 0 0 Z " fill="#E7F4FA" transform="translate(417,129)"/>
</svg>
